<svg width="24" height="24" viewBox="0 0 24 24" fill="none" xmlns="http://www.w3.org/2000/svg">
<rect x="10.7236" y="18" width="2.78816" height="3" fill="white"/>
<ellipse cx="12.3322" cy="12.5" rx="5.89802" ry="6.5" fill="white"/>
<path d="M8.6293 14.6063C8.6293 16.0457 7.41776 17.2125 5.92323 17.2125C4.42874 17.2125 3.21716 16.0457 3.21716 14.6063C3.21716 13.1669 4.42874 12 5.92323 12C7.41776 12 8.6293 13.1669 8.6293 14.6063Z" fill="#FFBDAF"/>
<path d="M19.8388 14.25C19.8388 15.4926 18.7586 16.5 17.426 16.5C16.0935 16.5 15.0132 15.4926 15.0132 14.25C15.0132 13.0074 16.0935 12 17.426 12C18.7586 12 19.8388 13.0074 19.8388 14.25Z" fill="#FFBDAF"/>
<path fill-rule="evenodd" clip-rule="evenodd" d="M11.8296 18.9848C8.76867 18.7905 5.91234 15.5027 6.00206 9.71777L6.37135 9.72286C6.28271 15.4376 9.09152 18.4622 11.8544 18.6376C13.2377 18.7254 14.6567 18.1101 15.7661 16.7087C16.8774 15.3048 17.6756 13.112 17.7888 10.0676L18.1579 10.0798C18.0429 13.1712 17.2314 15.4396 16.0621 16.9168C14.8908 18.3964 13.3583 19.0819 11.8296 18.9848Z" fill="#171717"/>
<path d="M4.47119 18.8734C3.6157 20.739 9.28321 23.503 10.2189 18.4588C7.51254 16.9235 6.64824 14.3433 6.52028 10.4225C8.29556 10.2622 8.98313 9.57253 9.94089 7.81854C9.65028 10.9452 11.5359 10.6546 12.6586 6.58724C13.8572 8.71575 14.8752 9.42353 17.3678 9.73616C17.6864 15.9623 15.1685 17.7307 13.7683 18.5217C13.7683 23.3233 20.9042 21.2095 19.7743 18.0836C21.7084 19.6232 26.305 18.9156 22.1688 14.0135C19.7743 11.1757 20.6451 3.53369 12.2774 3.53369C3.90967 3.53369 4.37482 10.9748 2.0117 13.5068C-3.05205 19.2604 3.78893 19.9836 4.47119 18.8734Z" fill="#171717"/>
<path fill-rule="evenodd" clip-rule="evenodd" d="M2.17678 13.5511C0.925559 14.984 0.432721 16.079 0.376444 16.8901C0.321112 17.6877 0.686296 18.2301 1.21883 18.5814C1.76033 18.9387 2.47959 19.0994 3.10827 19.101C3.42156 19.1017 3.70351 19.0628 3.92208 18.9945C4.14673 18.9243 4.27606 18.8322 4.32783 18.7473L4.65934 18.902C4.48625 19.2824 4.63056 19.7366 5.0316 20.1568C5.42919 20.5734 6.05023 20.9201 6.72586 21.0603C7.39923 21.1999 8.11103 21.1317 8.70734 20.7422C9.28447 20.3652 9.78064 19.6694 10.0181 18.5024C7.32016 16.9039 6.47423 14.2483 6.34775 10.3436L6.34248 10.1808L6.51523 10.1651C7.3754 10.0869 7.94933 9.88213 8.4243 9.49843C8.90702 9.10849 9.30383 8.52133 9.78047 7.6418L10.1305 7.73566C10.059 8.51173 10.1248 9.04979 10.2612 9.3623C10.329 9.5176 10.4068 9.60045 10.4756 9.63876C10.5376 9.67328 10.6116 9.68277 10.7107 9.64977C10.8158 9.61474 10.9463 9.53169 11.0947 9.38172C11.2418 9.23308 11.3986 9.02664 11.5583 8.75839C11.8777 8.22193 12.2002 7.45207 12.4776 6.43956L12.5976 6.00151L12.8215 6.40207C13.4145 7.46322 13.9511 8.14794 14.6309 8.60918C15.3095 9.06963 16.1503 9.3205 17.3802 9.47594L17.5333 9.49529L17.5407 9.64008C17.7008 12.7915 17.1493 14.8343 16.3661 16.1958C15.614 17.5033 14.6568 18.1668 13.9507 18.577C13.9738 19.6843 14.3931 20.3679 14.966 20.7475C15.5624 21.1425 16.3605 21.2316 17.1452 21.0781C17.9296 20.9246 18.6752 20.533 19.1539 20.0008C19.6288 19.4731 19.8382 18.8133 19.5806 18.0953L19.3664 17.4981L19.8769 17.9076C20.3283 18.2696 20.9414 18.5034 21.5468 18.5737C22.1548 18.6443 22.727 18.5473 23.1122 18.2821C23.4841 18.026 23.7124 17.5921 23.601 16.9105C23.4877 16.2178 23.0226 15.2775 21.9994 14.0557C21.3788 13.3146 20.9768 12.2701 20.593 11.152C20.5266 10.9587 20.4607 10.763 20.3943 10.5656C20.0728 9.61033 19.7386 8.61739 19.2776 7.68415C18.7229 6.56128 17.9913 5.5405 16.8963 4.79928C15.8032 4.05941 14.332 3.58723 12.2768 3.58723C10.2209 3.58723 8.72213 4.04726 7.5901 4.76591C6.45645 5.48559 5.67608 6.47381 5.0737 7.55231C4.56177 8.46886 4.18297 9.44133 3.82302 10.3654C3.75824 10.5317 3.69406 10.6965 3.62984 10.859C3.2135 11.9128 2.79084 12.8871 2.17678 13.5511ZM7.38224 4.47771C8.58482 3.71427 10.1587 3.23926 12.2768 3.23926C14.3959 3.23926 15.9466 3.72736 17.1133 4.51708C18.2779 5.30543 19.0438 6.38352 19.6141 7.53782C20.0861 8.4933 20.4288 9.51175 20.7503 10.4674C20.8161 10.663 20.881 10.856 20.946 11.0453C21.3321 12.17 21.7173 13.1556 22.2911 13.8408C23.3313 15.0829 23.8404 16.0795 23.9676 16.8578C24.0966 17.6472 23.8315 18.2184 23.3316 18.5626C22.845 18.8977 22.1668 18.9964 21.5012 18.9191C20.9984 18.8607 20.4869 18.7004 20.0458 18.4492C20.1333 19.1209 19.8801 19.7332 19.4374 20.2253C18.8983 20.8245 18.0754 21.2516 17.2209 21.4188C16.3667 21.5859 15.4554 21.4976 14.7521 21.0317C14.0419 20.5612 13.5788 19.7292 13.5788 18.4802V18.3822L13.6681 18.3314C14.352 17.9421 15.2987 17.3188 16.0397 16.0305C16.7708 14.7596 17.311 12.8253 17.1771 9.80062C15.9991 9.63994 15.1325 9.37897 14.4135 8.89114C13.7571 8.44576 13.2388 7.82141 12.7148 6.94745C12.4605 7.77834 12.1738 8.43812 11.8822 8.92807C11.7125 9.21309 11.5391 9.44408 11.3665 9.61847C11.1953 9.79153 11.0167 9.91709 10.8348 9.97769C10.6468 10.0403 10.4558 10.0324 10.2863 9.93797C10.1235 9.84731 10.0033 9.68961 9.918 9.49418C9.80705 9.24003 9.74274 8.89401 9.73196 8.46276C9.39478 9.01445 9.062 9.44249 8.66631 9.76213C8.15208 10.1775 7.546 10.399 6.72413 10.4937C6.86951 14.3281 7.73925 16.7934 10.3196 18.2684L10.4274 18.3299L10.4059 18.4466C10.1668 19.7453 9.61948 20.5704 8.91926 21.0278C8.21951 21.4849 7.39603 21.5556 6.64581 21.4C5.89786 21.2449 5.207 20.8623 4.75527 20.3889C4.43793 20.0564 4.22375 19.6604 4.2157 19.2596C4.1591 19.2841 4.09994 19.3057 4.03934 19.3246C3.77411 19.4075 3.45065 19.4498 3.10731 19.4489C2.42271 19.4473 1.62383 19.274 1.00547 18.8661C0.378144 18.4522 -0.0582388 17.7982 0.00632678 16.8675C0.0699222 15.9509 0.618032 14.7866 1.89157 13.3286L1.89327 13.3266L1.89503 13.3247C2.45882 12.7161 2.86185 11.8017 3.28206 10.7381C3.34516 10.5784 3.40856 10.4156 3.47287 10.2504C3.83248 9.32686 4.22081 8.32961 4.74517 7.3908C5.36501 6.28106 6.18128 5.24012 7.38224 4.47771Z" fill="#171717"/>
<path d="M9.9674 2.22137C9.05267 1.50907 8.71491 0.740136 9.26774 0.414984C10.1143 -0.163058 12.9475 1.40489 12.9475 3.68094C12.9475 3.68094 10.9587 2.9933 9.9674 2.22137Z" fill="#171717"/>
<path fill-rule="evenodd" clip-rule="evenodd" d="M10.1587 0.419251C9.79821 0.318667 9.54141 0.346924 9.40401 0.446375L9.3988 0.450143L9.39333 0.453552C9.29583 0.514333 9.24475 0.58948 9.22451 0.676475C9.20318 0.76821 9.21309 0.887961 9.26903 1.03513C9.38175 1.33172 9.66476 1.69474 10.103 2.05643C10.5717 2.44329 11.287 2.8162 11.897 3.09559C12.1998 3.23427 12.4725 3.34809 12.6695 3.4272C12.6871 3.43428 12.7041 3.44107 12.7205 3.44758C12.6256 2.44309 12.0111 1.58892 11.3004 1.02982C10.9145 0.726258 10.5091 0.517051 10.1587 0.419251ZM12.9192 3.71645C12.8527 3.88294 12.8527 3.88293 12.8527 3.88291L12.8526 3.88288L12.8522 3.88275L12.851 3.88231L12.8465 3.88064C12.8426 3.87918 12.8368 3.87704 12.8293 3.87423C12.8143 3.86862 12.7923 3.86034 12.7641 3.84956C12.7077 3.828 12.6263 3.79639 12.5257 3.75598C12.3245 3.67518 12.0461 3.55898 11.7366 3.41723C11.1221 3.13577 10.3686 2.74619 9.86016 2.32653C9.39669 1.944 9.06238 1.53322 8.91944 1.15712C8.84755 0.967951 8.82005 0.776642 8.86137 0.598936C8.90337 0.418367 9.01317 0.26696 9.18506 0.158115C9.46468 -0.0405216 9.8673 -0.0333555 10.2627 0.0769794C10.6706 0.190798 11.1198 0.426531 11.5365 0.754287C12.3682 1.40855 13.1052 2.45898 13.1052 3.71645V3.97546L12.8527 3.88294L12.9192 3.71645Z" fill="#171717"/>
<path d="M13.4977 20.6485C12.6677 20.9722 11.4874 20.92 10.6815 20.6485C9.75112 20.3351 9.09961 21.0773 10.2334 21.5378V23.5149C11.3161 23.9752 12.801 23.9317 13.8817 23.5864V21.5378C14.8784 21.3869 14.6955 20.315 13.4977 20.6485Z" fill="#171717"/>
<path fill-rule="evenodd" clip-rule="evenodd" d="M10.5441 20.4133V18.5522H10.9207V20.5145C11.6626 20.7278 12.671 20.7627 13.4155 20.5201V18.5522H13.7921V20.4216C14.0205 20.3871 14.2202 20.3998 14.3854 20.4529C14.6092 20.5248 14.7659 20.6711 14.8204 20.8551C14.9226 21.2003 14.6559 21.5377 14.1836 21.6617V23.6859L14.056 23.7257C12.9203 24.0799 11.3553 24.1287 10.1978 23.6484L10.0873 23.6025V21.6336C9.83976 21.5209 9.66398 21.3869 9.56493 21.2376C9.44573 21.058 9.44391 20.8617 9.5556 20.7C9.6609 20.5475 9.84932 20.4505 10.0613 20.4116C10.2072 20.3849 10.371 20.3839 10.5441 20.4133ZM10.5441 20.7662C10.3864 20.7303 10.2467 20.7294 10.1352 20.7499C9.99197 20.7761 9.90871 20.8339 9.87388 20.8844C9.84543 20.9256 9.83501 20.9805 9.88675 21.0585C9.9441 21.1449 10.0801 21.2581 10.3503 21.3653L10.4638 21.4103V23.3778C11.4621 23.7512 12.7903 23.7238 13.8071 23.437V21.3767L13.9654 21.3533C14.4122 21.2873 14.4883 21.0513 14.4569 20.9454C14.4391 20.8854 14.3837 20.8179 14.2608 20.7784C14.1565 20.7449 14.0019 20.7322 13.7921 20.7725V20.844H13.5453C12.7086 21.1177 11.6145 21.075 10.809 20.844H10.5441V20.7662Z" fill="#171717"/>
<path fill-rule="evenodd" clip-rule="evenodd" d="M16.1052 14.0904C17.6998 14.0904 19.0491 12.7888 19.0491 11.1166C19.0491 9.44438 17.6998 8.14284 16.1052 8.14284C14.5106 8.14284 13.1614 9.44438 13.1614 11.1166C13.1614 12.7888 14.5106 14.0904 16.1052 14.0904ZM16.1052 14.4295C17.9365 14.4295 19.421 12.9463 19.421 11.1166C19.421 9.28694 17.9365 7.80371 16.1052 7.80371C14.274 7.80371 12.7894 9.28694 12.7894 11.1166C12.7894 12.9463 14.274 14.4295 16.1052 14.4295Z" fill="#171717"/>
<path fill-rule="evenodd" clip-rule="evenodd" d="M8.05273 14.0904C9.6473 14.0904 10.9966 12.7888 10.9966 11.1166C10.9966 9.44438 9.6473 8.14284 8.05273 8.14284C6.45816 8.14284 5.10887 9.44438 5.10887 11.1166C5.10887 12.7888 6.45816 14.0904 8.05273 14.0904ZM8.05273 14.4295C9.88399 14.4295 11.3685 12.9463 11.3685 11.1166C11.3685 9.28694 9.88399 7.80371 8.05273 7.80371C6.22147 7.80371 4.73694 9.28694 4.73694 11.1166C4.73694 12.9463 6.22147 14.4295 8.05273 14.4295Z" fill="#171717"/>
<path fill-rule="evenodd" clip-rule="evenodd" d="M12.9474 11.7791H11.2106V11.3374H12.9474V11.7791Z" fill="#171717"/>
<path d="M15.4737 11.3375C15.4737 11.6628 15.3324 11.9264 15.158 11.9264C14.9835 11.9264 14.8422 11.6628 14.8422 11.3375C14.8422 11.0122 14.9835 10.7485 15.158 10.7485C15.3324 10.7485 15.4737 11.0122 15.4737 11.3375Z" fill="#171717"/>
<path d="M9.78954 11.3375C9.78954 11.6628 9.64815 11.9264 9.47375 11.9264C9.29934 11.9264 9.15796 11.6628 9.15796 11.3375C9.15796 11.0122 9.29934 10.7485 9.47375 10.7485C9.64815 10.7485 9.78954 11.0122 9.78954 11.3375Z" fill="#171717"/>
<path fill-rule="evenodd" clip-rule="evenodd" d="M11.8296 18.9848C8.76867 18.7905 5.91234 15.5027 6.00206 9.71777L6.37135 9.72286C6.28271 15.4376 9.09152 18.4622 11.8544 18.6376C13.2377 18.7254 14.6567 18.1101 15.7661 16.7087C16.8774 15.3048 17.6756 13.112 17.7888 10.0676L18.1579 10.0798C18.0429 13.1712 17.2314 15.4396 16.0621 16.9168C14.8908 18.3964 13.3583 19.0819 11.8296 18.9848Z" fill="#171717"/>
<path d="M4.47119 18.8734C3.6157 20.739 9.28321 23.503 10.2189 18.4588C7.51254 16.9235 6.64824 14.3433 6.52028 10.4225C8.29556 10.2622 8.98313 9.57253 9.94089 7.81854C9.65028 10.9452 11.5359 10.6546 12.6586 6.58724C13.8572 8.71575 14.8752 9.42353 17.3678 9.73616C17.6864 15.9623 15.1685 17.7307 13.7683 18.5217C13.7683 23.3233 20.9042 21.2095 19.7743 18.0836C21.7084 19.6232 26.305 18.9156 22.1688 14.0135C19.7743 11.1757 20.6451 3.53369 12.2774 3.53369C3.90967 3.53369 4.37482 10.9748 2.0117 13.5068C-3.05205 19.2604 3.78893 19.9836 4.47119 18.8734Z" fill="#171717"/>
<path fill-rule="evenodd" clip-rule="evenodd" d="M2.17678 13.5511C0.925559 14.984 0.432721 16.079 0.376444 16.8901C0.321112 17.6877 0.686296 18.2301 1.21883 18.5814C1.76033 18.9387 2.47959 19.0994 3.10827 19.101C3.42156 19.1017 3.70351 19.0628 3.92208 18.9945C4.14673 18.9243 4.27606 18.8322 4.32783 18.7473L4.65934 18.902C4.48625 19.2824 4.63056 19.7366 5.0316 20.1568C5.42919 20.5734 6.05023 20.9201 6.72586 21.0603C7.39923 21.1999 8.11103 21.1317 8.70734 20.7422C9.28447 20.3652 9.78064 19.6694 10.0181 18.5024C7.32016 16.9039 6.47423 14.2483 6.34775 10.3436L6.34248 10.1808L6.51523 10.1651C7.3754 10.0869 7.94933 9.88213 8.4243 9.49843C8.90702 9.10849 9.30383 8.52133 9.78047 7.6418L10.1305 7.73566C10.059 8.51173 10.1248 9.04979 10.2612 9.3623C10.329 9.5176 10.4068 9.60045 10.4756 9.63876C10.5376 9.67328 10.6116 9.68277 10.7107 9.64977C10.8158 9.61474 10.9463 9.53169 11.0947 9.38172C11.2418 9.23308 11.3986 9.02664 11.5583 8.75839C11.8777 8.22193 12.2002 7.45207 12.4776 6.43956L12.5976 6.00151L12.8215 6.40207C13.4145 7.46322 13.9511 8.14794 14.6309 8.60918C15.3095 9.06963 16.1503 9.3205 17.3802 9.47594L17.5333 9.49529L17.5407 9.64008C17.7008 12.7915 17.1493 14.8343 16.3661 16.1958C15.614 17.5033 14.6568 18.1668 13.9507 18.577C13.9738 19.6843 14.3931 20.3679 14.966 20.7475C15.5624 21.1425 16.3605 21.2316 17.1452 21.0781C17.9296 20.9246 18.6752 20.533 19.1539 20.0008C19.6288 19.4731 19.8382 18.8133 19.5806 18.0953L19.3664 17.4981L19.8769 17.9076C20.3283 18.2696 20.9414 18.5034 21.5468 18.5737C22.1548 18.6443 22.727 18.5473 23.1122 18.2821C23.4841 18.026 23.7124 17.5921 23.601 16.9105C23.4877 16.2178 23.0226 15.2775 21.9994 14.0557C21.3788 13.3146 20.9768 12.2701 20.593 11.152C20.5266 10.9587 20.4607 10.763 20.3943 10.5656C20.0728 9.61033 19.7386 8.61739 19.2776 7.68415C18.7229 6.56128 17.9913 5.5405 16.8963 4.79928C15.8032 4.05941 14.332 3.58723 12.2768 3.58723C10.2209 3.58723 8.72213 4.04726 7.5901 4.76591C6.45645 5.48559 5.67608 6.47381 5.0737 7.55231C4.56177 8.46886 4.18297 9.44133 3.82302 10.3654C3.75824 10.5317 3.69406 10.6965 3.62984 10.859C3.2135 11.9128 2.79084 12.8871 2.17678 13.5511ZM7.38224 4.47771C8.58482 3.71427 10.1587 3.23926 12.2768 3.23926C14.3959 3.23926 15.9466 3.72736 17.1133 4.51708C18.2779 5.30543 19.0438 6.38352 19.6141 7.53782C20.0861 8.4933 20.4288 9.51175 20.7503 10.4674C20.8161 10.663 20.881 10.856 20.946 11.0453C21.3321 12.17 21.7173 13.1556 22.2911 13.8408C23.3313 15.0829 23.8404 16.0795 23.9676 16.8578C24.0966 17.6472 23.8315 18.2184 23.3316 18.5626C22.845 18.8977 22.1668 18.9964 21.5012 18.9191C20.9984 18.8607 20.4869 18.7004 20.0458 18.4492C20.1333 19.1209 19.8801 19.7332 19.4374 20.2253C18.8983 20.8245 18.0754 21.2516 17.2209 21.4188C16.3667 21.5859 15.4554 21.4976 14.7521 21.0317C14.0419 20.5612 13.5788 19.7292 13.5788 18.4802V18.3822L13.6681 18.3314C14.352 17.9421 15.2987 17.3188 16.0397 16.0305C16.7708 14.7596 17.311 12.8253 17.1771 9.80062C15.9991 9.63994 15.1325 9.37897 14.4135 8.89114C13.7571 8.44576 13.2388 7.82141 12.7148 6.94745C12.4605 7.77834 12.1738 8.43812 11.8822 8.92807C11.7125 9.21309 11.5391 9.44408 11.3665 9.61847C11.1953 9.79153 11.0167 9.91709 10.8348 9.97769C10.6468 10.0403 10.4558 10.0324 10.2863 9.93797C10.1235 9.84731 10.0033 9.68961 9.918 9.49418C9.80705 9.24003 9.74274 8.89401 9.73196 8.46276C9.39478 9.01445 9.062 9.44249 8.66631 9.76213C8.15208 10.1775 7.546 10.399 6.72413 10.4937C6.86951 14.3281 7.73925 16.7934 10.3196 18.2684L10.4274 18.3299L10.4059 18.4466C10.1668 19.7453 9.61948 20.5704 8.91926 21.0278C8.21951 21.4849 7.39603 21.5556 6.64581 21.4C5.89786 21.2449 5.207 20.8623 4.75527 20.3889C4.43793 20.0564 4.22375 19.6604 4.2157 19.2596C4.1591 19.2841 4.09994 19.3057 4.03934 19.3246C3.77411 19.4075 3.45065 19.4498 3.10731 19.4489C2.42271 19.4473 1.62383 19.274 1.00547 18.8661C0.378144 18.4522 -0.0582388 17.7982 0.00632678 16.8675C0.0699222 15.9509 0.618032 14.7866 1.89157 13.3286L1.89327 13.3266L1.89503 13.3247C2.45882 12.7161 2.86185 11.8017 3.28206 10.7381C3.34516 10.5784 3.40856 10.4156 3.47287 10.2504C3.83248 9.32686 4.22081 8.32961 4.74517 7.3908C5.36501 6.28106 6.18128 5.24012 7.38224 4.47771Z" fill="#171717"/>
<path d="M9.9674 2.22137C9.05267 1.50907 8.71491 0.740136 9.26774 0.414984C10.1143 -0.163058 12.9475 1.40489 12.9475 3.68094C12.9475 3.68094 10.9587 2.9933 9.9674 2.22137Z" fill="#171717"/>
<path fill-rule="evenodd" clip-rule="evenodd" d="M10.1587 0.419251C9.79821 0.318667 9.54141 0.346924 9.40401 0.446375L9.3988 0.450143L9.39333 0.453552C9.29583 0.514333 9.24475 0.58948 9.22451 0.676475C9.20318 0.76821 9.21309 0.887961 9.26903 1.03513C9.38175 1.33172 9.66476 1.69474 10.103 2.05643C10.5717 2.44329 11.287 2.8162 11.897 3.09559C12.1998 3.23427 12.4725 3.34809 12.6695 3.4272C12.6871 3.43428 12.7041 3.44107 12.7205 3.44758C12.6256 2.44309 12.0111 1.58892 11.3004 1.02982C10.9145 0.726258 10.5091 0.517051 10.1587 0.419251ZM12.9192 3.71645C12.8527 3.88294 12.8527 3.88293 12.8527 3.88291L12.8526 3.88288L12.8522 3.88275L12.851 3.88231L12.8465 3.88064C12.8426 3.87918 12.8368 3.87704 12.8293 3.87423C12.8143 3.86862 12.7923 3.86034 12.7641 3.84956C12.7077 3.828 12.6263 3.79639 12.5257 3.75598C12.3245 3.67518 12.0461 3.55898 11.7366 3.41723C11.1221 3.13577 10.3686 2.74619 9.86016 2.32653C9.39669 1.944 9.06238 1.53322 8.91944 1.15712C8.84755 0.967951 8.82005 0.776642 8.86137 0.598936C8.90337 0.418367 9.01317 0.26696 9.18506 0.158115C9.46468 -0.0405216 9.8673 -0.0333555 10.2627 0.0769794C10.6706 0.190798 11.1198 0.426531 11.5365 0.754287C12.3682 1.40855 13.1052 2.45898 13.1052 3.71645V3.97546L12.8527 3.88294L12.9192 3.71645Z" fill="#171717"/>
<path d="M13.4977 20.6485C12.6677 20.9722 11.4874 20.92 10.6815 20.6485C9.75112 20.3351 9.09961 21.0773 10.2334 21.5378V23.5149C11.3161 23.9752 12.801 23.9317 13.8817 23.5864V21.5378C14.8784 21.3869 14.6955 20.315 13.4977 20.6485Z" fill="#171717"/>
<path fill-rule="evenodd" clip-rule="evenodd" d="M10.5441 20.4133V18.5522H10.9207V20.5145C11.6626 20.7278 12.671 20.7627 13.4155 20.5201V18.5522H13.7921V20.4216C14.0205 20.3871 14.2202 20.3998 14.3854 20.4529C14.6092 20.5248 14.7659 20.6711 14.8204 20.8551C14.9226 21.2003 14.6559 21.5377 14.1836 21.6617V23.6859L14.056 23.7257C12.9203 24.0799 11.3553 24.1287 10.1978 23.6484L10.0873 23.6025V21.6336C9.83976 21.5209 9.66398 21.3869 9.56493 21.2376C9.44573 21.058 9.44391 20.8617 9.5556 20.7C9.6609 20.5475 9.84932 20.4505 10.0613 20.4116C10.2072 20.3849 10.371 20.3839 10.5441 20.4133ZM10.5441 20.7662C10.3864 20.7303 10.2467 20.7294 10.1352 20.7499C9.99197 20.7761 9.90871 20.8339 9.87388 20.8844C9.84543 20.9256 9.83501 20.9805 9.88675 21.0585C9.9441 21.1449 10.0801 21.2581 10.3503 21.3653L10.4638 21.4103V23.3778C11.4621 23.7512 12.7903 23.7238 13.8071 23.437V21.3767L13.9654 21.3533C14.4122 21.2873 14.4883 21.0513 14.4569 20.9454C14.4391 20.8854 14.3837 20.8179 14.2608 20.7784C14.1565 20.7449 14.0019 20.7322 13.7921 20.7725V20.844H13.5453C12.7086 21.1177 11.6145 21.075 10.809 20.844H10.5441V20.7662Z" fill="#171717"/>
<path fill-rule="evenodd" clip-rule="evenodd" d="M16.1052 14.0904C17.6998 14.0904 19.0491 12.7888 19.0491 11.1166C19.0491 9.44438 17.6998 8.14284 16.1052 8.14284C14.5106 8.14284 13.1614 9.44438 13.1614 11.1166C13.1614 12.7888 14.5106 14.0904 16.1052 14.0904ZM16.1052 14.4295C17.9365 14.4295 19.421 12.9463 19.421 11.1166C19.421 9.28694 17.9365 7.80371 16.1052 7.80371C14.274 7.80371 12.7894 9.28694 12.7894 11.1166C12.7894 12.9463 14.274 14.4295 16.1052 14.4295Z" fill="#171717"/>
<path fill-rule="evenodd" clip-rule="evenodd" d="M8.05273 14.0904C9.6473 14.0904 10.9966 12.7888 10.9966 11.1166C10.9966 9.44438 9.6473 8.14284 8.05273 8.14284C6.45816 8.14284 5.10887 9.44438 5.10887 11.1166C5.10887 12.7888 6.45816 14.0904 8.05273 14.0904ZM8.05273 14.4295C9.88399 14.4295 11.3685 12.9463 11.3685 11.1166C11.3685 9.28694 9.88399 7.80371 8.05273 7.80371C6.22147 7.80371 4.73694 9.28694 4.73694 11.1166C4.73694 12.9463 6.22147 14.4295 8.05273 14.4295Z" fill="#171717"/>
<path fill-rule="evenodd" clip-rule="evenodd" d="M12.9474 11.7791H11.2106V11.3374H12.9474V11.7791Z" fill="#171717"/>
<path d="M15.4737 11.3375C15.4737 11.6628 15.3324 11.9264 15.158 11.9264C14.9835 11.9264 14.8422 11.6628 14.8422 11.3375C14.8422 11.0122 14.9835 10.7485 15.158 10.7485C15.3324 10.7485 15.4737 11.0122 15.4737 11.3375Z" fill="#171717"/>
<path d="M9.78954 11.3375C9.78954 11.6628 9.64815 11.9264 9.47375 11.9264C9.29934 11.9264 9.15796 11.6628 9.15796 11.3375C9.15796 11.0122 9.29934 10.7485 9.47375 10.7485C9.64815 10.7485 9.78954 11.0122 9.78954 11.3375Z" fill="#171717"/>
</svg>
